<mxfile><diagram id="1D585lEirfnpwvaLvRWg" name="Página-1"><mxGraphModel dx="524" dy="537" grid="1" gridSize="10" guides="1" tooltips="1" connect="1" arrows="1" fold="1" page="1" pageScale="1" pageWidth="827" pageHeight="1169" math="0" shadow="0"><root><mxCell id="0"/><mxCell id="1" parent="0"/><mxCell id="2" value="" style="edgeStyle=none;html=1;" edge="1" parent="1" source="3" target="5"><mxGeometry relative="1" as="geometry"/></mxCell><mxCell id="3" value="INCIO" style="ellipse;whiteSpace=wrap;html=1;fillColor=#6a00ff;fontColor=#ffffff;strokeColor=#3700CC;" vertex="1" parent="1"><mxGeometry x="354" y="20" width="120" height="80" as="geometry"/></mxCell><mxCell id="4" value="" style="edgeStyle=none;html=1;" edge="1" parent="1" source="5" target="7"><mxGeometry relative="1" as="geometry"/></mxCell><mxCell id="5" value="C" style="shape=parallelogram;perimeter=parallelogramPerimeter;whiteSpace=wrap;html=1;fixedSize=1;fillColor=#e3c800;fontColor=#000000;strokeColor=#B09500;" vertex="1" parent="1"><mxGeometry x="354" y="150" width="120" height="60" as="geometry"/></mxCell><mxCell id="6" value="" style="edgeStyle=none;html=1;" edge="1" parent="1" source="7" target="10"><mxGeometry relative="1" as="geometry"/></mxCell><mxCell id="7" value="n = 0&lt;br&gt;d = 2* C" style="whiteSpace=wrap;html=1;fillColor=#76608a;fontColor=#ffffff;strokeColor=#432D57;" vertex="1" parent="1"><mxGeometry x="354" y="250" width="120" height="60" as="geometry"/></mxCell><mxCell id="8" value="V" style="edgeStyle=none;html=1;" edge="1" parent="1" source="10" target="12"><mxGeometry x="-0.6" y="16" relative="1" as="geometry"><mxPoint as="offset"/></mxGeometry></mxCell><mxCell id="9" style="edgeStyle=none;html=1;entryX=0.5;entryY=0;entryDx=0;entryDy=0;" edge="1" parent="1" source="10" target="14"><mxGeometry relative="1" as="geometry"><Array as="points"><mxPoint x="620" y="420"/></Array></mxGeometry></mxCell><mxCell id="10" value="C &amp;lt;= d" style="rhombus;whiteSpace=wrap;html=1;fillColor=#e3c800;fontColor=#000000;strokeColor=#B09500;" vertex="1" parent="1"><mxGeometry x="374" y="380" width="80" height="80" as="geometry"/></mxCell><mxCell id="11" style="edgeStyle=none;html=1;exitX=0.5;exitY=1;exitDx=0;exitDy=0;" edge="1" parent="1" source="12"><mxGeometry relative="1" as="geometry"><mxPoint x="414" y="352" as="targetPoint"/><Array as="points"><mxPoint x="414" y="610"/><mxPoint x="280" y="610"/><mxPoint x="280" y="352"/></Array></mxGeometry></mxCell><mxCell id="12" value="C = 1.05 + C&lt;br&gt;n = n +1" style="whiteSpace=wrap;html=1;fillColor=#a20025;fontColor=#ffffff;strokeColor=#6F0000;" vertex="1" parent="1"><mxGeometry x="354" y="510" width="120" height="60" as="geometry"/></mxCell><mxCell id="13" style="edgeStyle=none;html=1;" edge="1" parent="1" source="14" target="15"><mxGeometry relative="1" as="geometry"/></mxCell><mxCell id="14" value="n" style="shape=document;whiteSpace=wrap;html=1;boundedLbl=1;fillColor=#6a00ff;fontColor=#ffffff;strokeColor=#3700CC;" vertex="1" parent="1"><mxGeometry x="560" y="450" width="120" height="80" as="geometry"/></mxCell><mxCell id="15" value="FIN" style="ellipse;whiteSpace=wrap;html=1;fillColor=#60a917;fontColor=#ffffff;strokeColor=#2D7600;" vertex="1" parent="1"><mxGeometry x="560" y="585" width="120" height="80" as="geometry"/></mxCell></root></mxGraphModel></diagram></mxfile>